<?xml version="1.0" encoding="utf-8"?>
<!-- Generator: Adobe Illustrator 18.1.1, SVG Export Plug-In . SVG Version: 6.00 Build 0)  -->
<!DOCTYPE svg PUBLIC "-//W3C//DTD SVG 1.1//EN" "http://www.w3.org/Graphics/SVG/1.1/DTD/svg11.dtd">
<svg version="1.1" id="Layer_1" xmlns="http://www.w3.org/2000/svg" xmlns:xlink="http://www.w3.org/1999/xlink" x="0px" y="0px"
	 viewBox="0 0 92.4 78.9" enable-background="new 0 0 92.4 78.9" xml:space="preserve">
<path d="M18.7,35.1l-5-10.4h-3.5v10.4H1.8v-31h13.9c7.3,0,12.1,2.7,12.1,10.1c0,4.6-2.2,7.5-5.6,9.1l6.2,11.8H18.7z M15.4,11.1h-5.2
	v6.8h5c2.8,0,3.9-1.2,3.9-3.5C19.2,12.5,18.1,11.1,15.4,11.1z"/>
<path d="M80.8,35.1H65.9v-31h15c7.7,0,10.8,2.9,10.8,8.1c0,3.4-1.6,4.9-3.7,6.1c2.8,1.2,4.4,3.4,4.4,6.9
	C92.4,31.4,88.5,35.1,80.8,35.1z M80.6,10.9h-6.5v4.9h6.5c2,0,2.7-1,2.7-2.4C83.3,12,82.6,10.9,80.6,10.9z M80.9,22.3h-6.8v6h6.8
	c2.1,0,3.1-1.3,3.1-3.1C84,23.5,83,22.3,80.9,22.3z"/>
<path d="M13.5,56.8l-1.4-4.1H5.4l-1.4,4.1H0l7-18.4h3.6l7,18.4H13.5z M9.6,45.9c-0.4-1.1-0.7-2.2-0.9-2.9c-0.2,0.7-0.6,1.8-0.9,2.9
	l-1.2,3.3h4.2L9.6,45.9z"/>
<path d="M25.8,56.8h-5.5V38.4H26c5.2,0,9.1,2.5,9.1,9.2C35.2,54,30.5,56.8,25.8,56.8z M25.9,42H24v11.2h1.8c3.9,0,5.6-2.3,5.6-5.6
	C31.4,43.8,29.8,42,25.9,42z"/>
<path d="M49.6,56.8l-1.4-4.1h-6.7L40,56.8h-3.9l7-18.4h3.6l7,18.4H49.6z M45.7,45.9c-0.4-1.1-0.7-2.2-0.9-2.9
	c-0.2,0.7-0.6,1.8-0.9,2.9l-1.2,3.3h4.2L45.7,45.9z"/>
<path d="M70,56.8V50c0-1,0.1-3.3,0.1-4c-0.3,0.7-0.8,2-1.3,3l-3.7,8.2L61.3,49c-0.5-1-1-2.4-1.3-3c0,0.7,0.1,3,0.1,4v6.7h-3.6V38.4
	H60l3.8,8.3c0.5,1,1,2.4,1.3,3.1c0.2-0.7,0.8-2,1.2-3.1l3.7-8.3h3.6v18.4H70z"/>
<path d="M84,57.1c-3.1,0-5.7-1.3-7.1-3.3l2.6-2.4c1.3,1.5,2.9,2.1,4.7,2.1c2.2,0,3.2-0.6,3.2-2c0-1.2-0.6-1.7-4.1-2.5
	c-3.4-0.8-5.7-1.9-5.7-5.5c0-3.3,2.9-5.4,6.6-5.4c2.9,0,5,1.1,6.7,2.9l-2.6,2.6c-1.2-1.2-2.5-1.9-4.2-1.9c-2,0-2.6,0.8-2.6,1.7
	c0,1.2,0.8,1.5,3.7,2.2c2.9,0.7,6.1,1.7,6.1,5.7C91.2,54.7,89,57.1,84,57.1z"/>
<path d="M7.7,78.7c-4.5,0-7.4-4.1-7.4-9.4c0-5.5,3.1-9.5,7.5-9.5c2.5,0,4.4,0.9,5.8,2.9L12,64c-1.2-1.6-2.3-2.3-4.3-2.3
	c-3.1,0-5.4,3.1-5.4,7.6c0,4.5,2.3,7.6,5.4,7.6c2,0,3.4-0.9,4.5-2.4l1.4,1.2C12.4,77.5,10.4,78.7,7.7,78.7z"/>
<path d="M22,78.4h-4.5V60.1h4.9c4.8,0,8.4,2.8,8.4,9C30.7,75.8,26.9,78.4,22,78.4z M22.2,61.9h-2.6v14.6h2.7c4,0,6.4-2.1,6.4-7.4
	C28.7,64.5,26.4,61.9,22.2,61.9z"/>
<path d="M34.7,78.7C33.8,78.7,33,78,33,77c0-0.9,0.8-1.7,1.7-1.7c0.9,0,1.7,0.8,1.7,1.7C36.4,78,35.6,78.7,34.7,78.7z"/>
<path d="M46.3,78.7c-4.5,0-7.4-4.1-7.4-9.4c0-5.5,3.1-9.5,7.5-9.5c2.5,0,4.4,0.9,5.8,2.9L50.6,64c-1.2-1.6-2.3-2.3-4.3-2.3
	c-3.1,0-5.4,3.1-5.4,7.6c0,4.5,2.3,7.6,5.4,7.6c2,0,3.4-0.9,4.5-2.4l1.4,1.2C50.9,77.5,48.9,78.7,46.3,78.7z"/>
<path d="M62.4,78.7c-4.6,0-7.6-3.9-7.6-9.4c0-5.5,3.1-9.5,7.6-9.5c4.6,0,7.6,3.9,7.6,9.4S66.9,78.7,62.4,78.7z M62.4,61.6
	c-3.2,0-5.5,3-5.5,7.6c0,4.6,2.4,7.6,5.6,7.6c3.2,0,5.5-3,5.5-7.6C68,64.7,65.6,61.6,62.4,61.6z"/>
<path d="M87.9,78.4V66v-2c-0.2,0.7-0.7,2.1-1.1,3l-4.9,11.8l-4.8-11.8c-0.4-0.9-0.9-2.3-1.1-3v2v12.4h-2V60.1h2.3l4.3,11
	c0.4,1.1,1.1,2.8,1.3,3.6c0.2-0.8,0.9-2.5,1.3-3.6l4.4-11h2.2v18.4H87.9z"/>
<g>
	<path d="M46.6,37.6c-10.4,0-18.8-8.4-18.8-18.8C27.8,8.4,36.2,0,46.6,0c10.4,0,18.8,8.4,18.8,18.8C65.4,29.2,56.9,37.6,46.6,37.6
		L46.6,37.6z M46.6,2.7c-8.9,0-16.1,7.2-16.1,16.1s7.2,16.1,16.1,16.1c8.9,0,16.1-7.2,16.1-16.1S55.4,2.7,46.6,2.7L46.6,2.7z"/>
</g>
</svg>
