<?xml version="1.0" encoding="utf-8"?>
<!-- Generator: Adobe Illustrator 18.1.1, SVG Export Plug-In . SVG Version: 6.00 Build 0)  -->
<!DOCTYPE svg PUBLIC "-//W3C//DTD SVG 1.1//EN" "http://www.w3.org/Graphics/SVG/1.1/DTD/svg11.dtd">
<svg version="1.1" id="Layer_1" xmlns="http://www.w3.org/2000/svg" xmlns:xlink="http://www.w3.org/1999/xlink" x="0px" y="0px"
	 viewBox="0 0 219.2 23.9" enable-background="new 0 0 219.2 23.9" xml:space="preserve">
<path d="M10,21l-3-6.2H5V21H0V2.7h8.2c4.3,0,7.2,1.6,7.2,6c0,2.8-1.3,4.5-3.3,5.4l3.7,7H10z M8.1,6.8H5v4h3c1.7,0,2.3-0.7,2.3-2
	C10.3,7.6,9.7,6.8,8.1,6.8z"/>
<path d="M48.1,21h-8.8V2.7h8.9c4.6,0,6.4,1.7,6.4,4.8c0,2-1,2.9-2.2,3.6c1.7,0.7,2.6,2,2.6,4.1C55,18.9,52.7,21,48.1,21z M48,6.7
	h-3.8v2.9H48c1.2,0,1.6-0.6,1.6-1.4C49.6,7.3,49.2,6.7,48,6.7z M48.2,13.5h-4V17h4c1.3,0,1.8-0.8,1.8-1.8
	C50,14.1,49.4,13.5,48.2,13.5z"/>
<path d="M68.5,21L67,16.4h-7.6L57.8,21h-2.1l6.4-18.4h2.3L70.7,21H68.5z M64.3,8.5c-0.4-1.2-0.9-2.9-1.1-3.6C63,5.6,62.5,7.2,62,8.5
	l-2,6h6.3L64.3,8.5z"/>
<path d="M76.4,21h-4.5V2.7h4.9c4.8,0,8.4,2.8,8.4,9C85.1,18.4,81.3,21,76.4,21z M76.6,4.5H74v14.6h2.7c4,0,6.4-2.1,6.4-7.4
	C83.1,7.1,80.8,4.5,76.6,4.5z"/>
<path d="M98,21l-1.6-4.7h-7.6L87.2,21h-2.1l6.4-18.4h2.3l6.4,18.4H98z M93.8,8.5c-0.4-1.2-0.9-2.9-1.1-3.6c-0.2,0.7-0.7,2.4-1.2,3.7
	l-2,6h6.3L93.8,8.5z"/>
<path d="M116,21V8.6v-2c-0.2,0.7-0.7,2.1-1.1,3L110,21.5l-4.8-11.8c-0.4-0.9-0.9-2.3-1.1-3v2V21h-2V2.7h2.3l4.3,11
	c0.4,1.1,1.1,2.8,1.3,3.6c0.2-0.8,0.9-2.5,1.3-3.6l4.4-11h2.2V21H116z"/>
<path d="M126,21.3c-2.5,0-4.7-1.1-6.2-2.5l1.4-1.5c1.4,1.3,3,2.2,4.9,2.2c2.4,0,4-1.2,4-3.1c0-1.7-1-2.7-4.4-3.9
	c-4-1.4-5.3-2.7-5.3-5.3c0-2.9,2.3-4.7,5.7-4.7c2.5,0,4,0.7,5.6,2L130.3,6c-1.3-1.1-2.6-1.7-4.4-1.7c-2.5,0-3.6,1.3-3.6,2.7
	c0,1.5,0.7,2.4,4.4,3.7c4.1,1.5,5.3,2.8,5.3,5.6C132,19.1,129.8,21.3,126,21.3z"/>
<path d="M145.9,8c-0.7-1.3-1.7-2-3.4-2c-2.8,0-4.3,2.4-4.3,5.8c0,3.3,1.6,5.8,4.4,5.8c1.7,0,2.6-0.7,3.6-2.3l3.1,1.8
	c-1.3,2.6-3.5,4.1-6.8,4.1c-4.8,0-8-3.7-8-9.5c0-5.6,3.4-9.5,8.2-9.5c3.5,0,5.6,1.7,6.7,4.1L145.9,8z"/>
<path d="M156.2,21h-5.5V2.7h5.7c5.2,0,9.1,2.5,9.1,9.2C165.6,18.3,160.9,21,156.2,21z M156.3,6.2h-1.9v11.2h1.8
	c3.9,0,5.6-2.3,5.6-5.6C161.8,8.1,160.2,6.2,156.3,6.2z"/>
<path d="M167.2,21.3c-1.3,0-2.5-1.1-2.5-2.5c0-1.3,1.1-2.5,2.5-2.5c1.3,0,2.5,1.1,2.5,2.5C169.7,20.2,168.5,21.3,167.2,21.3z"/>
<path d="M180.5,8c-0.7-1.3-1.7-2-3.4-2c-2.8,0-4.3,2.4-4.3,5.8c0,3.3,1.6,5.8,4.4,5.8c1.7,0,2.6-0.7,3.6-2.3l3.1,1.8
	c-1.3,2.6-3.5,4.1-6.8,4.1c-4.8,0-8-3.7-8-9.5c0-5.6,3.4-9.5,8.2-9.5c3.5,0,5.6,1.7,6.7,4.1L180.5,8z"/>
<path d="M192.6,21.3c-5,0-8-3.9-8-9.5c0-5.6,3-9.5,8-9.5c5,0,8,3.9,8,9.5C200.6,17.4,197.7,21.3,192.6,21.3z M192.6,6
	c-3,0-4.2,2.5-4.2,5.8c0,3.3,1.2,5.8,4.2,5.8c3,0,4.2-2.5,4.2-5.8C196.8,8.6,195.6,6,192.6,6z"/>
<path d="M215.5,21v-6.7c0-1,0.1-3.3,0.1-4c-0.3,0.7-0.8,2-1.3,3l-3.7,8.2l-3.7-8.2c-0.5-1-1-2.4-1.3-3c0,0.7,0.1,3,0.1,4V21H202V2.7
	h3.5l3.8,8.3c0.5,1,1,2.4,1.3,3.1c0.2-0.7,0.8-2,1.2-3.1l3.7-8.3h3.6V21H215.5z"/>
<g>
	<path fill="#FFFFFF" d="M27.1,23c-6.1,0-11-4.9-11-11c0-6.1,4.9-11,11-11c6.1,0,11,4.9,11,11C38.1,18,33.2,23,27.1,23L27.1,23z"/>
	<path d="M27.1,1.7c5.6,0,10.2,4.6,10.2,10.2s-4.6,10.2-10.2,10.2s-10.2-4.6-10.2-10.2S21.5,1.7,27.1,1.7 M27.1,0.1
		c-6.5,0-11.8,5.3-11.8,11.8c0,6.5,5.3,11.8,11.8,11.8s11.8-5.3,11.8-11.8C38.9,5.4,33.6,0.1,27.1,0.1L27.1,0.1z"/>
</g>
<g>
</g>
<g>
</g>
<g>
</g>
<g>
</g>
<g>
</g>
<g>
</g>
</svg>
